Coordinates
version=1
nRows=20
nColumns=33
inDegrees=yes

Units are S.I. units (second, meters, Newtons, ...)
Angles are in degrees.

endheader
time	ground_thorax_rot_x	ground_thorax_rot_y	ground_thorax_rot_z	ground_thorax_tx	ground_thorax_ty	ground_thorax_tz	clav_prot_r	clav_elev_r	scapula_abduction_r	scapula_elevation_r	scapula_upward_rot_r	scapula_winging_r	shoulder_elv_r	plane_of_elev_r	axial_rot_r	elbow_flexion_r	pro_sup_r	wrist_flex_r	wrist_dev_r	clav_prot_l	clav_elev_l	scapula_abduction_l	scapula_elevation_l	scapula_upward_rot_l	scapula_winging_l	shoulder_elv_l	plane_of_elev_l	axial_rot_l	elbow_flexion_l	pro_sup_l	wrist_flex_l	wrist_dev_l	
1.3400	2.135176	36.805757	26.026432	-0.040518	1.038049	-0.054531	-22.826017	41.140730	-45.000000	30.608549	45.000000	-9.013664	24.608354	20.630336	22.697583	124.971243	45.126414	18.165382	-24.360493	26.212846	-35.508491	-45.000000	7.891274	-41.290137	5.471434	111.272721	26.569748	27.094235	101.996877	46.986691	-1.483816	-25.000000	
1.3500	2.099637	36.291713	26.149244	-0.041193	1.038027	-0.054685	-23.332981	40.806821	-45.000000	30.181188	45.000000	-9.466514	25.086886	22.251795	22.344028	124.237877	44.469813	18.232680	-24.271356	26.166037	-35.157836	-45.000000	7.697328	-40.997676	5.750635	112.036702	27.037105	28.302024	101.367871	47.445995	-1.923912	-25.000000	
1.3600	2.127410	35.724921	26.280000	-0.042008	1.037899	-0.054699	-23.985029	40.368825	-45.000000	29.629797	45.000000	-10.051488	25.470910	24.065367	22.120298	123.292181	44.021826	17.995907	-23.874550	26.112394	-34.827645	-45.000000	7.485303	-40.801452	6.017334	112.909844	27.415079	29.625216	100.726575	47.922085	-2.364976	-25.000000	
1.3700	2.219295	35.146527	26.410495	-0.042935	1.037718	-0.054593	-24.740675	39.851137	-45.000000	28.988529	45.000000	-10.731896	25.796192	26.007001	21.999275	122.208462	44.012318	17.233806	-23.196948	26.069571	-34.558726	-45.000000	7.316866	-40.631102	6.233044	113.813481	27.658994	30.962934	100.088203	48.336921	-2.745417	-25.000000	
1.3800	2.373262	34.562305	26.539466	-0.043936	1.037491	-0.054344	-25.608904	39.240901	-45.000000	28.248166	45.000000	-11.518150	26.030781	28.058952	21.965410	120.964070	44.697024	16.256261	-22.207894	26.034662	-34.353202	-45.000000	7.181794	-40.518310	6.398428	114.787994	27.773019	32.341461	99.448611	48.684903	-3.071811	-25.000000	
1.3900	2.572226	34.012605	26.666500	-0.044948	1.037261	-0.053996	-26.496913	38.600506	-45.000000	27.486896	45.000000	-12.326663	26.229965	30.128428	21.967740	119.667587	45.987685	14.960517	-21.076528	26.019440	-34.219266	-45.000000	7.119650	-40.376537	6.501511	115.724135	27.760152	33.648190	98.822721	48.918627	-3.309130	-25.000000	
1.4000	2.815267	33.495116	26.781493	-0.045924	1.037008	-0.053550	-27.382619	37.944586	-45.000000	26.723148	45.000000	-13.137929	26.400801	32.190382	21.941022	118.316681	47.805928	13.791941	-19.845399	26.015374	-34.122619	-45.000000	7.099460	-40.208984	6.571860	116.611426	27.681183	34.911772	98.201994	49.064837	-3.499334	-25.000000	
1.4100	3.085097	33.028178	26.868121	-0.046800	1.036760	-0.053059	-28.203823	37.315539	-45.000000	26.009068	45.000000	-13.895230	26.574451	34.184289	21.853724	116.988855	49.779221	12.859727	-18.678122	26.024686	-34.048099	-45.000000	7.127551	-39.963892	6.619030	117.404181	27.568555	36.084453	97.587932	49.138383	-3.653793	-25.000000	
1.4200	3.362738	32.607401	26.934957	-0.047560	1.036526	-0.052550	-28.989251	36.693463	-45.000000	25.319934	45.000000	-14.624346	26.719451	36.111657	21.744406	115.660074	51.718169	12.344608	-17.568888	26.037165	-33.981606	-45.000000	7.169659	-39.700021	6.658288	118.172108	27.462645	37.222692	96.962808	49.198645	-3.809858	-25.000000	
1.4300	3.633993	32.234709	26.982434	-0.048190	1.036321	-0.052062	-29.732414	36.080981	-45.000000	24.660174	45.000000	-15.319133	26.838039	37.972625	21.659717	114.364292	53.463157	11.974886	-16.558081	26.053095	-33.917673	-45.000000	7.225952	-39.404367	6.693287	118.910279	27.370225	38.302646	96.328055	49.259669	-3.976792	-25.000000	
1.4400	3.901362	31.912735	27.011688	-0.048713	1.036152	-0.051615	-30.451524	35.469968	-45.000000	24.015419	45.000000	-15.994752	26.949000	39.765451	21.586926	113.095668	55.070953	11.723673	-15.602224	26.071461	-33.859132	-45.000000	7.295026	-39.087249	6.722246	119.612774	27.310827	39.335952	95.674478	49.329258	-4.160220	-25.000000	
1.4500	4.163061	31.635994	27.017307	-0.049131	1.036023	-0.051207	-31.144084	34.863240	-45.000000	23.387907	45.000000	-16.648341	27.053317	41.490656	21.521551	111.859776	56.525912	11.579712	-14.715221	26.092475	-33.806239	-45.000000	7.378085	-38.746151	6.744693	120.290742	27.275682	40.321162	95.003714	49.411825	-4.365605	-25.000000	
1.4600	4.421762	31.402447	26.999430	-0.049463	1.035936	-0.050840	-31.824347	34.251522	-45.000000	22.765419	45.000000	-17.292257	27.147187	43.156353	21.473342	110.650021	57.865599	11.497145	-13.888100	26.115609	-33.770036	-45.000000	7.474586	-38.407745	6.753058	120.974822	27.259023	41.279824	94.309631	49.519830	-4.605728	-25.000000	
1.4700	4.673638	31.204391	26.972177	-0.049725	1.035884	-0.050495	-32.478902	33.646394	-45.000000	22.159914	45.000000	-17.913649	27.232079	44.765824	21.435755	109.458874	59.066352	11.478531	-13.130670	26.140142	-33.746014	-45.000000	7.581111	-38.070893	6.750942	121.651035	27.254417	42.201884	93.597920	49.654823	-4.885544	-25.000000	
1.4800	4.920876	31.037184	26.939402	-0.049936	1.035846	-0.050165	-33.075843	33.076949	-45.000000	21.600556	45.000000	-18.482020	27.340213	46.314263	21.366230	108.293361	60.032826	11.520656	-12.493498	26.166713	-33.725592	-45.000000	7.700178	-37.709293	6.743812	122.274874	27.267454	43.069888	92.872891	49.812387	-5.204067	-25.000000	
1.4900	5.162831	30.890642	26.896290	-0.050093	1.035823	-0.049837	-33.641444	32.522146	-45.000000	21.064109	45.000000	-19.021742	27.438263	47.818155	21.292858	107.137175	60.849002	11.628520	-11.935738	26.193716	-33.713204	-45.000000	7.825839	-37.349035	6.729677	122.899678	27.279128	43.907981	92.133957	50.009718	-5.581405	-25.000000	
1.5000	5.397528	30.764983	26.851759	-0.050203	1.035811	-0.049514	-34.175883	31.983848	-45.000000	20.551041	45.000000	-19.532137	27.534550	49.275133	21.218428	105.991304	61.517396	11.792624	-11.467858	26.220939	-33.709220	-45.000000	7.956829	-36.994115	6.708175	123.521063	27.289053	44.711906	91.383064	50.247664	-6.010210	-25.000000	
1.5100	5.623346	30.662506	26.808681	-0.050267	1.035816	-0.049204	-34.692071	31.451430	-45.000000	20.049792	45.000000	-20.025003	27.630005	50.686552	21.159409	104.851793	62.062685	12.014139	-11.099650	26.248534	-33.720313	-45.000000	8.093115	-36.659979	6.674638	124.158834	27.294215	45.486610	90.617277	50.542399	-6.499554	-25.000000	
1.5200	5.837018	30.575943	26.777666	-0.050298	1.035822	-0.048892	-35.162686	30.954997	-45.000000	19.587620	45.000000	-20.473869	27.747795	52.043460	21.079985	103.723073	62.381390	12.296648	-10.882325	26.275202	-33.731061	-45.000000	8.231002	-36.321092	6.639968	124.765551	27.302316	46.216729	89.851815	50.864759	-7.008209	-25.000000	
1.5300	6.043118	30.504231	26.746791	-0.050295	1.035832	-0.048578	-35.590993	30.492574	-45.000000	19.161980	45.000000	-20.882106	27.893706	53.348487	20.976870	102.590729	62.309236	12.730795	-10.909518	26.301770	-33.744884	-45.000000	8.373756	-35.976746	6.601601	125.352665	27.310468	46.911296	89.087044	51.214606	-7.539611	-25.000000	
